<svg xmlns="http://www.w3.org/2000/svg" viewBox="0 0 500 500"><g id="freepik--background-simple--inject-33"><path d="M478.76,275.56c-13.49,40.9-42.56,85.72-85.35,100.32C328.77,397.93,323,451,205.68,450.58a236.28,236.28,0,0,1-50.94-5.47,197.3,197.3,0,0,1-24.12-7c-69.5-25.07-107.55-84.69-113-148.4-7.16-83.79,49.87-126.07,87-151s79.53-117.45,194.87-118a229.36,229.36,0,0,1,52.35,5.6c39.16,9,79.46,30.67,103.67,63.7q2.71,3.72,5.23,7.62C493.43,148.46,497.16,219.8,478.76,275.56Z" style="fill:#FF725E"></path><path d="M478.76,275.56c-13.49,40.9-42.56,85.72-85.35,100.32C328.77,397.93,323,451,205.68,450.58a236.28,236.28,0,0,1-50.94-5.47,197.3,197.3,0,0,1-24.12-7c-69.5-25.07-107.55-84.69-113-148.4-7.16-83.79,49.87-126.07,87-151s79.53-117.45,194.87-118a229.36,229.36,0,0,1,52.35,5.6c39.16,9,79.46,30.67,103.67,63.7q2.71,3.72,5.23,7.62C493.43,148.46,497.16,219.8,478.76,275.56Z" style="fill:#fff;opacity:0.7000000000000001"></path></g><g id="freepik--Screen--inject-33"><path d="M423.93,53.25H85.68a8.15,8.15,0,0,0-8.15,8.16V324.72a8.15,8.15,0,0,0,8.15,8.15H290.85l24,18.66-3.63-18.66H423.93a8.15,8.15,0,0,0,8.15-8.15V61.41A8.15,8.15,0,0,0,423.93,53.25Z" style="fill:#263238"></path><path d="M314.84,352a.51.51,0,0,1-.31-.11l-23.86-18.55h-205A8.66,8.66,0,0,1,77,324.72V61.41a8.67,8.67,0,0,1,8.65-8.66H423.93a8.67,8.67,0,0,1,8.65,8.66V324.72a8.66,8.66,0,0,1-8.65,8.65H311.81l3.52,18.06a.48.48,0,0,1-.23.52A.5.5,0,0,1,314.84,352ZM85.68,53.75A7.66,7.66,0,0,0,78,61.41V324.72a7.66,7.66,0,0,0,7.65,7.65H290.85a.51.51,0,0,1,.3.1l22.94,17.85L310.72,333a.51.51,0,0,1,.1-.41.53.53,0,0,1,.39-.18H423.93a7.66,7.66,0,0,0,7.65-7.65V61.41a7.66,7.66,0,0,0-7.65-7.66Z" style="fill:#263238"></path><path d="M429.87,45.09H91.62a8.15,8.15,0,0,0-8.15,8.15V316.55a8.15,8.15,0,0,0,8.15,8.15H296.78l24,18.66-3.62-18.66H429.87a8.15,8.15,0,0,0,8.15-8.15V53.24A8.15,8.15,0,0,0,429.87,45.09Z" style="fill:#FF725E"></path><path d="M176.3,173.56s-9.1-15.16-23-16-16.46,11.26-21.22,14.3-8.66-2.6-14.73-.44-5.2,5.63-10,7.8-8.23-3.47-13-1.3-6.06,4.76-6.06,4.76h107s-3-8.23-7.8-9.52S181.5,177.46,176.3,173.56Z" style="fill:#fff"></path><path d="M418,117.4s-6.65-11.09-16.8-11.73-12.05,8.25-15.53,10.47-6.34-1.91-10.78-.32-3.81,4.12-7.29,5.71-6-2.54-9.51-1-4.44,3.49-4.44,3.49H432s-2.22-6-5.7-7S421.85,120.26,418,117.4Z" style="fill:#fff"></path><path d="M387.46,75.32s-12.29-20.49-31-21.66S334.2,68.88,327.76,73s-11.71-3.51-19.9-.58-7,7.61-13.46,10.53-11.12-4.68-17.56-1.75-8.19,6.44-8.19,6.44H413.21s-4.1-11.12-10.53-12.88S394.48,80.58,387.46,75.32Z" style="fill:#fff"></path><g style="opacity:0.15"><path d="M120.59,285.54a3.44,3.44,0,0,0-5-1.23c-1.74,1.09-2.48,3.51-2.65,5.45-.2,2.27,1.55,7.07,1.55,7.07s2.82-2.11,3-2.26C119.35,292.75,121.89,288.15,120.59,285.54Z"></path><path d="M93,310.89c.44-.59.83-1.12.88-1.2,1.32-2.24,2.54-7.34.6-9.52a3.44,3.44,0,0,0-5.12.13c-1.39,1.51-1.47,4-1.12,5.95s2.6,5.31,3.21,6.19l-1.3,1.3c-2,2-4,4.08-6,6a8.38,8.38,0,0,0,.59,1.11l.09-.08c2-2.06,4.06-4.21,6.08-6.35l1.87-1.94c.21.34,2.69,4.36,4.51,5.57,1.61,1.08,4,2,5.91,1.34a3.46,3.46,0,0,0,2.15-4.66c-1.23-2.64-6.4-3.54-9-3.22-.19,0-2.82.65-3.48.85,1.37-1.43,2.75-2.84,4.16-4.17a62.64,62.64,0,0,1,6-5.05c.1.16,2.68,4.37,4.54,5.61,1.61,1.08,4,2,5.91,1.34a3.45,3.45,0,0,0,2.15-4.66c-1.23-2.64-6.4-3.54-9-3.22-.2,0-3,.71-3.53.87.12-.09.24-.2.37-.28a44,44,0,0,1,6.86-3.89c1.32-.61,2.61-1.13,3.88-1.6.4.83,2.28,4.61,3.82,5.92s3.73,2.43,5.73,2a3.45,3.45,0,0,0,2.65-4.4c-.93-2.76-6-4.22-8.57-4.18-.14,0-1.58.17-2.62.32.58-.21,1.17-.43,1.72-.61,2.09-.71,4-1.22,5.78-1.66,1-.25,1.89-.45,2.73-.63.82.62,4.15,3,6.09,3.48s4.43.44,6-.89a3.44,3.44,0,0,0,.32-5.11c-2.1-2-7.25-1-9.54.23-.2.1-3.1,2.12-3.06,2.15l.05,0c-.82.15-1.69.33-2.63.54-1.75.41-3.72.88-5.83,1.54a59.68,59.68,0,0,0-6.71,2.45,45.58,45.58,0,0,0-7,3.78l-.08.06c.54-.67,2-2.58,2.06-2.73,1.32-2.25,2.55-7.35.61-9.53a3.45,3.45,0,0,0-5.13.13c-1.38,1.51-1.47,4-1.12,5.95.4,2.16,3.11,6.05,3.33,6.36a60,60,0,0,0-6.36,5.08C95.29,308.67,94.14,309.77,93,310.89Z"></path><path d="M83.47,311.92v4.63a8.22,8.22,0,0,0,.15,1.58C84.21,316,84.39,313.49,83.47,311.92Z"></path><path d="M126.52,221c2.62-3.74,5.48-12.5,2.39-16.58a6.05,6.05,0,0,0-9-.49c-2.64,2.45-3.14,6.87-2.79,10.26.41,4,5,11.7,5,11.7S126.29,221.36,126.52,221Z"></path><path d="M160.76,209.16c-4.27-2.8-12.82.66-16.37,3.52-.3.25-4.66,4.68-4.57,4.72l.09,0c-1.35.53-2.79,1.12-4.36,1.8-2.88,1.27-6.12,2.73-9.55,4.56a106.89,106.89,0,0,0-10.76,6.43,78.18,78.18,0,0,0-10.9,8.82l-.12.12c.71-1.32,2.55-5.08,2.66-5.38,1.54-4.3,2-13.51-2.07-16.62a6,6,0,0,0-8.8,1.89c-1.9,3.07-1.21,7.46,0,10.64,1.38,3.58,7.34,9.41,7.82,9.88a106.84,106.84,0,0,0-9.31,10.83c-1.68,2.21-3.3,4.5-4.9,6.8.57-1.16,1.08-2.2,1.13-2.36,1.54-4.29,2-13.5-2.07-16.61a5.64,5.64,0,0,0-5.23-.9v18.72c1.63,1.93,3.32,3.64,4,4.33-.6.89-1.21,1.77-1.81,2.67l-2.2,3.27v3.48c1.23-1.92,2.47-3.84,3.7-5.77.85-1.33,1.71-2.64,2.57-4,.47.52,6.08,6.64,9.61,8.14,3.14,1.33,7.51,2.16,10.64.36a6,6,0,0,0,2.17-8.73c-3-4.15-12.19-4-16.54-2.61-.32.1-4.65,2.05-5.72,2.6,1.89-2.91,3.81-5.79,5.81-8.55a105.48,105.48,0,0,1,8.77-10.68c.22.24,6,6.65,9.66,8.19,3.13,1.33,7.5,2.16,10.63.36a6,6,0,0,0,2.18-8.73c-3-4.15-12.2-4-16.54-2.61-.34.1-5,2.21-5.81,2.65.19-.2.36-.42.54-.61a78.6,78.6,0,0,1,10.57-8.94c2.07-1.5,4.14-2.81,6.17-4,1,1.31,5.43,7.23,8.53,9s7.22,3,10.53,1.53a6,6,0,0,0,3.12-8.44c-2.5-4.46-11.68-5.33-16.15-4.42-.25.05-2.66.83-4.41,1.42.92-.54,1.87-1.12,2.77-1.62,3.37-1.9,6.57-3.43,9.41-4.76,1.63-.74,3.11-1.38,4.51-2,1.61.78,8.15,3.88,11.64,4s7.78-.69,10-3.5A6.05,6.05,0,0,0,160.76,209.16Z"></path><path d="M83.47,278.44V289.6a9.08,9.08,0,0,0,.87.45c3.14,1.33,7.51,2.16,10.64.36a6,6,0,0,0,2.17-8.73C94.73,278.3,88.17,277.76,83.47,278.44Z"></path><path d="M85.71,322.15a8.1,8.1,0,0,0,5.91,2.55h2.55C92.47,322.61,88.07,321.88,85.71,322.15Z"></path><path d="M374.41,196.86c.11,0-4.51-6-4.85-6.36-3.87-4-13.7-9.39-19.28-6.62-4,2-4.92,7-2.63,10.63s7.5,5.32,11.64,5.67C364.14,200.6,374.41,196.86,374.41,196.86Z"></path><path d="M438,316.31v-4.08c-1.85-.91-3.77-1.82-5.74-2.74a79,79,0,0,0,2.05-9.18,19.34,19.34,0,0,0,3.69-.77v-13a27.3,27.3,0,0,0-8.44-2.53,8.87,8.87,0,0,0-1.35-.91c-3.77-2.07-8.71-.85-10.45,3.28-2.42,5.73,3.58,15.21,7.79,18.84.24.21,3.2,2.23,5.08,3.48-1.22-.57-2.39-1.13-3.66-1.69-2.48-1.13-5-2.19-7.7-3.34l-4-1.54c-1.33-.54-2.8-.94-4.22-1.43-3.29-1.05-6.69-2-10.12-2.8,1-2.18,4.37-10,4.4-14.14s-1.11-9.44-4.59-12.11-8.48-2.15-10.83,1.66c-3.27,5.3,1.23,15.58,4.84,19.81.22.26,3.15,3,4.79,4.47-2.07-.49-4.13-1-6.24-1.41-6.1-1.23-12.3-2.28-18.49-3.36-1.89-.33-3.78-.68-5.66-1,.36-.77,4.59-9.95,4.61-14.61,0-4.15-1.1-9.45-4.59-12.11a7.35,7.35,0,0,0-10.83,1.66c-3.26,5.3,1.23,15.58,4.84,19.8.28.32,4.5,4.25,5.62,5.2-4.16-.76-8.29-1.56-12.34-2.51a130.47,130.47,0,0,1-16.11-4.81c.17-.36,4.63-9.92,4.66-14.7,0-4.15-1.11-9.44-4.6-12.11a7.35,7.35,0,0,0-10.82,1.66c-3.27,5.3,1.23,15.58,4.84,19.8.28.33,4.83,4.56,5.71,5.27-.31-.11-.64-.2-.94-.32a95.11,95.11,0,0,1-15-7.66c-2.65-1.62-5.1-3.32-7.44-5,1-1.7,5.55-9.5,6.05-13.8.48-4.12-.05-9.5-3.23-12.54s-8.19-3.07-10.94.47c-3.83,4.9-.49,15.62,2.63,20.21.17.25,2.18,2.6,3.67,4.29-1.05-.79-2.14-1.58-3.13-2.35-3.71-2.89-6.93-5.77-9.76-8.34-1.6-1.47-3-2.84-4.33-4.13.13-2.18.53-11-1-15s-4.43-8.41-8.65-9.64-8.69,1-9.5,5.45c-1.13,6.12,6.76,14.09,11.65,16.72.43.23,7.44,3,7.45,2.92s0-.1,0-.13c1.24,1.27,2.58,2.61,4.07,4.05,2.78,2.64,6,5.6,9.61,8.58a131.85,131.85,0,0,0,12.28,9.06,95.18,95.18,0,0,0,15,8.09l.19.07c-1.81-.17-6.9-.47-7.3-.45-5.54.29-16.09,4.13-17.68,10.14a7.37,7.37,0,0,0,6.26,9c4.34.69,8.95-2.14,11.94-5,3.37-3.25,7.11-12.68,7.41-13.43A130,130,0,0,0,356.05,291c3.28.84,6.6,1.59,9.94,2.3-1.57-.1-3-.17-3.18-.16-5.55.3-16.09,4.13-17.68,10.14-1.15,4.34,2,8.32,6.26,9s8.95-2.14,11.94-5,6.38-10.9,7.24-13l3.85.78c6.17,1.22,12.33,2.41,18.34,3.75,2.12.48,4.19,1,6.26,1.56-1.4-.08-2.58-.14-2.76-.13-5.54.29-16.09,4.13-17.68,10.14-1.15,4.33,2,8.32,6.26,9s9-2.14,11.94-5,6.05-10.12,7.09-12.64c2.1.61,4.21,1.23,6.22,1.92,1.36.5,2.71.89,4.05,1.47l4,1.62c2.49,1.13,5.07,2.28,7.47,3.44,1.68.79,3.26,1.58,4.86,2.37-2.1-.5-6.24-1.39-6.6-1.42-5.52-.55-16.53,1.64-19,7.35a6.87,6.87,0,0,0,.41,6.3H422.7c3.67-3,8.25-10.69,8.84-11.7C433.78,314.12,436,315.22,438,316.31Z"></path><path d="M428.52,258.58c0,.34,1,4.24,1.53,6.37-1.46-1.55-2.9-3.1-4.43-4.62-4.4-4.39-9-8.69-13.56-13-1.4-1.32-2.78-2.65-4.16-4,.72-.45,9.31-5.77,11.91-9.65,2.31-3.44,4.29-8.48,2.85-12.63s-5.88-6.48-10-4.59c-5.64,2.62-7.56,13.67-6.88,19.19.05.41,1.4,6,1.82,7.43-3-2.92-6.06-5.87-8.91-8.89A129.82,129.82,0,0,1,388,221.3c.34-.2,9.33-5.72,12-9.69,2.3-3.45,4.29-8.48,2.85-12.63s-5.89-6.48-9.95-4.59c-5.65,2.62-7.57,13.67-6.89,19.19.06.43,1.51,6.47,1.86,7.54-.19-.26-.42-.52-.61-.78a96,96,0,0,1-8.29-14.67c-1.32-2.82-2.42-5.58-3.44-8.3,1.78-.85,9.87-4.85,12.66-8.16s5.2-8,4.23-12.24-5.14-7.09-9.39-5.66c-5.9,2-9,12.76-9,18.32,0,.3.38,3.37.69,5.59-.44-1.23-.91-2.49-1.31-3.68-1.5-4.46-2.6-8.63-3.54-12.34-.52-2.11-.95-4-1.33-5.83,1.31-1.75,6.49-8.87,7.42-13s1-9.45-1.89-12.81-7.82-3.92-10.93-.69c-4.32,4.48-2.13,15.48.49,20.38.23.42,4.53,6.63,4.6,6.54l.08-.1c.34,1.74.71,3.6,1.16,5.62.87,3.74,1.88,8,3.29,12.46A130,130,0,0,0,378,206.08a95.85,95.85,0,0,0,8.07,15,1.67,1.67,0,0,1,.12.16c-1.42-1.14-5.49-4.2-5.83-4.4-4.79-2.81-15.7-5.44-20.35-1.3a7.37,7.37,0,0,0,.27,11c3.24,3,8.64,3.14,12.72,2.39,4.61-.84,12.93-6.65,13.59-7.11a131.54,131.54,0,0,0,10.84,13.6c2.27,2.51,4.63,5,7,7.4-1.25-.95-2.39-1.79-2.56-1.89-4.79-2.81-15.7-5.43-20.34-1.29-3.35,3-2.91,8,.26,11s8.65,3.14,12.73,2.39,11.33-5.56,13.22-6.86l2.78,2.78c4.48,4.42,9,8.81,13.23,13.24,1.5,1.57,2.93,3.16,4.36,4.75-1.12-.84-2.07-1.54-2.23-1.63-4.79-2.81-15.7-5.43-20.34-1.29-3.35,3-2.91,8,.26,10.95s8.65,3.15,12.73,2.4,10.63-5.1,12.88-6.63c1.42,1.67,2.84,3.34,4.14,5,.82,1.12,1.68,2.15,2.45,3.3v-5a.76.76,0,0,1-.08-.11c-2.17-2.7-4.5-5.33-6.91-7.92a82.29,82.29,0,0,0,7-4.93v-22.3a6.9,6.9,0,0,0-2.61.64C429.76,242,427.84,253.06,428.52,258.58Z"></path><path d="M204.82,323.29c-1.48-.91-2.85-1.86-4.16-2.81.57-1,3.11-5.31,3.39-7.72s0-5.32-1.81-7a4.13,4.13,0,0,0-6.13.26c-2.14,2.75-.27,8.74,1.48,11.31.09.14,1.22,1.46,2,2.4-.59-.44-1.2-.88-1.75-1.31-2.08-1.62-3.88-3.23-5.46-4.67-.9-.82-1.69-1.59-2.42-2.31.07-1.22.29-6.14-.55-8.37s-2.48-4.7-4.84-5.39a4.12,4.12,0,0,0-5.32,3c-.63,3.42,3.79,7.88,6.52,9.36.24.13,4.16,1.69,4.17,1.63v-.07c.7.71,1.45,1.46,2.28,2.27,1.56,1.47,3.33,3.12,5.38,4.79a71.27,71.27,0,0,0,6.87,5.08l1.5.93h1.23C206.42,324.24,205.6,323.77,204.82,323.29Z"></path><path d="M200,320.57c0-.05-4-1.42-4.23-1.47-3-.66-9.29-.15-11,2.86a3.83,3.83,0,0,0-.42,2.74h12.18A44.92,44.92,0,0,0,200,320.57Z"></path><path d="M254,307c-.79-.74-1.56-1.49-2.33-2.23.4-.25,5.21-3.23,6.66-5.4,1.29-1.93,2.4-4.74,1.6-7.07a4.12,4.12,0,0,0-5.57-2.56c-3.16,1.46-4.23,7.65-3.85,10.73,0,.23.78,3.37,1,4.16-1.71-1.63-3.39-3.28-5-5a74.51,74.51,0,0,1-6-7.23c.19-.11,5.22-3.2,6.71-5.42,1.29-1.93,2.4-4.75,1.59-7.07a4.12,4.12,0,0,0-5.56-2.57c-3.16,1.47-4.24,7.66-3.86,10.74,0,.24.85,3.62,1,4.22l-.34-.44a53.43,53.43,0,0,1-4.64-8.21c-.74-1.57-1.35-3.12-1.92-4.64,1-.48,5.52-2.71,7.08-4.56s2.91-4.46,2.37-6.85a4.13,4.13,0,0,0-5.26-3.17c-3.3,1.11-5,7.14-5,10.25,0,.17.21,1.88.38,3.13-.24-.69-.51-1.39-.73-2.06-.84-2.49-1.46-4.83-2-6.9-.29-1.19-.53-2.26-.75-3.27.73-1,3.64-5,4.16-7.28s.53-5.29-1.06-7.17a4.12,4.12,0,0,0-6.12-.39c-2.42,2.51-1.19,8.67.28,11.41.12.23,2.53,3.71,2.57,3.66l0-.06c.18,1,.39,2,.65,3.15.48,2.09,1.05,4.44,1.84,7a74.8,74.8,0,0,0,2.92,8,54.77,54.77,0,0,0,4.52,8.41l.07.09c-.79-.64-3.07-2.35-3.26-2.46-2.68-1.58-8.79-3-11.39-.73a4.13,4.13,0,0,0,.15,6.13c1.81,1.66,4.84,1.76,7.12,1.34,2.58-.47,7.23-3.72,7.6-4a72.79,72.79,0,0,0,6.07,7.61c1.27,1.41,2.59,2.78,3.93,4.14-.7-.53-1.34-1-1.43-1.05-2.69-1.58-8.79-3-11.39-.73a4.13,4.13,0,0,0,.15,6.13c1.81,1.66,4.84,1.76,7.12,1.34s6.34-3.11,7.4-3.84l1.56,1.56c2.5,2.47,5,4.92,7.4,7.41.84.87,1.64,1.76,2.44,2.66-.63-.48-1.16-.87-1.25-.92-2.68-1.57-8.78-3-11.38-.72a4.12,4.12,0,0,0,.15,6.13c1.81,1.66,4.83,1.76,7.12,1.34s5.95-2.86,7.21-3.71c.79.93,1.58,1.87,2.31,2.81.44.61.91,1.17,1.33,1.79h2.12l-.6-.84c-.45-.66-1-1.3-1.53-2-1.21-1.51-2.51-3-3.86-4.44,1.14-.71,5.12-3.3,6.42-5.24s2.4-4.75,1.6-7.07a4.13,4.13,0,0,0-5.57-2.57c-3.16,1.47-4.24,7.66-3.85,10.74,0,.19.54,2.38.85,3.57-.81-.87-1.62-1.74-2.48-2.59C259.11,311.85,256.54,309.44,254,307Z"></path><path d="M232.56,323.75c0-2.32-.62-5.28-2.57-6.78a4.13,4.13,0,0,0-6.06.93c-1.06,1.73-.65,4.4.28,6.8h8.26A6.73,6.73,0,0,0,232.56,323.75Z"></path><path d="M292,284.34c4,1.81,9.2.29,12.84-1.7,4.28-2.33,10.78-11.1,10.78-11.11S308.5,269,308,268.9c-5.43-1.18-16.61-.27-19.74,5.11A7.38,7.38,0,0,0,292,284.34Z"></path><path d="M281.91,319a4.12,4.12,0,0,0-5.89-1.7c-1.94,1.29-2.63,4.53-2.63,7.42H282A7.54,7.54,0,0,0,281.91,319Z"></path><path d="M224.46,280.65c2.71.23,8.46-1.86,8.46-1.86s-2.53-3.37-2.71-3.56c-2.17-2.23-7.67-5.26-10.79-3.71a4.12,4.12,0,0,0-1.48,6C219.25,279.55,222.14,280.45,224.46,280.65Z"></path><path d="M247.65,320.66a4.12,4.12,0,0,0-6.06.93,5.26,5.26,0,0,0-.6,3.11h8.95A6.85,6.85,0,0,0,247.65,320.66Z"></path><path d="M216.47,319.57c0-2.32-.62-5.28-2.57-6.77a4.11,4.11,0,0,0-6.06.93c-1.8,2.92.62,8.55,2.63,11h4.69A17.53,17.53,0,0,0,216.47,319.57Z"></path><path d="M84.63,109.12c.75-1.22,1.53-2.34,2.31-3.42.78.47,4.36,2.56,6.34,2.79s4.37,0,5.76-1.49a3.38,3.38,0,0,0-.21-5c-2.25-1.76-7.18-.22-9.29,1.21-.11.08-1.19,1-2,1.69.36-.48.72-1,1.08-1.44,1.33-1.71,2.65-3.19,3.83-4.49.68-.73,1.31-1.38,1.9-2,1,.06,5.05.24,6.88-.45s3.86-2,4.43-4a3.38,3.38,0,0,0-2.51-4.36c-2.81-.52-6.48,3.11-7.69,5.35-.1.2-1.39,3.42-1.34,3.43h.06c-.58.57-1.2,1.19-1.86,1.87-1.22,1.28-2.57,2.74-3.94,4.42a58.36,58.36,0,0,0-4.17,5.65c-.26.4-.52.81-.77,1.23v1C83.85,110.44,84.24,109.77,84.63,109.12Z"></path><path d="M86.86,105.16s1.17-3.25,1.21-3.47c.55-2.5.13-7.64-2.35-9.07a3.12,3.12,0,0,0-2.25-.35v10A37.66,37.66,0,0,0,86.86,105.16Z"></path><path d="M98,149.51l1.83-1.91c.21.34,2.65,4.28,4.43,5.48,1.59,1.06,3.9,2,5.81,1.31a3.38,3.38,0,0,0,2.11-4.57c-1.2-2.6-6.28-3.48-8.82-3.17-.19,0-2.77.65-3.42.84,1.35-1.41,2.7-2.79,4.09-4.1a61.6,61.6,0,0,1,5.93-5c.1.16,2.63,4.29,4.46,5.52,1.59,1.06,3.9,2,5.81,1.31a3.4,3.4,0,0,0,2.11-4.58c-1.21-2.59-6.29-3.48-8.82-3.16-.2,0-3,.69-3.47.85l.36-.28a43.16,43.16,0,0,1,6.74-3.81c1.3-.61,2.57-1.11,3.82-1.58.39.82,2.23,4.54,3.75,5.82s3.66,2.39,5.63,1.94a3.39,3.39,0,0,0,2.6-4.31c-.92-2.71-5.87-4.15-8.42-4.12-.14,0-1.55.18-2.58.32.57-.2,1.15-.42,1.7-.6,2-.69,4-1.2,5.67-1.63,1-.24,1.85-.44,2.68-.61.8.6,4.08,3,6,3.41s4.35.44,5.89-.87a3.39,3.39,0,0,0,.32-5c-2.06-2-7.12-1-9.37.23-.19.11-3.05,2.09-3,2.12l0,0c-.8.16-1.65.33-2.58.54-1.72.4-3.66.86-5.73,1.51a59.58,59.58,0,0,0-6.59,2.41,43.11,43.11,0,0,0-6.91,3.71l-.08.05c.53-.65,1.94-2.52,2-2.68,1.29-2.2,2.5-7.22.59-9.35a3.38,3.38,0,0,0-5,.12c-1.37,1.49-1.45,4-1.1,5.85.39,2.12,3,5.94,3.27,6.25a59,59,0,0,0-6.25,5c-1.16,1-2.29,2.13-3.41,3.23.44-.58.83-1.1.87-1.18,1.3-2.2,2.5-7.22.6-9.35a3.39,3.39,0,0,0-5,.12c-1.36,1.49-1.44,4-1.1,5.85s2.56,5.21,3.15,6.08l-1.27,1.28c-2,2.05-4,4.12-6.09,6.08-.72.69-1.45,1.34-2.18,2l.75-1c1.29-2.2,2.49-7.22.59-9.35a3.38,3.38,0,0,0-5,.12c-1.37,1.49-1.45,4-1.11,5.85s2.35,4.89,3,5.92c-.77.65-1.54,1.31-2.31,1.9-.5.37-1,.75-1.47,1.09v1.75l.69-.5c.54-.37,1.07-.83,1.61-1.25,1.25-1,2.45-2.07,3.65-3.17.58.93,2.71,4.2,4.3,5.27s3.9,2,5.81,1.31a3.38,3.38,0,0,0,2.11-4.57c-1.2-2.6-6.29-3.48-8.82-3.17-.16,0-1.95.45-2.93.71.71-.67,1.42-1.34,2.12-2C94,153.72,96,151.61,98,149.51Z"></path><path d="M84.25,131.91c1.91,0,4.34-.5,5.57-2.11a3.38,3.38,0,0,0-.77-5c-1.42-.87-3.61-.53-5.58.23v6.79A5.63,5.63,0,0,0,84.25,131.91Z"></path><path d="M88.17,172.46a3.38,3.38,0,0,0,1.39-4.84c-1-1.59-3.71-2.17-6.09-2.16v7.06A6.21,6.21,0,0,0,88.17,172.46Z"></path><path d="M119.66,125.26c-.19,2.23,1.53,7,1.53,7s2.77-2.08,2.93-2.23c1.82-1.78,4.31-6.3,3-8.86a3.39,3.39,0,0,0-4.89-1.22C120.56,121,119.83,123.35,119.66,125.26Z"></path><path d="M86.79,144.31a3.38,3.38,0,0,0-.76-5,4.23,4.23,0,0,0-2.56-.5v7.35A5.63,5.63,0,0,0,86.79,144.31Z"></path><path d="M87.68,118.69c1.91,0,4.34-.5,5.57-2.11a3.38,3.38,0,0,0-.76-5c-2.41-1.48-7,.51-9,2.15v3.86A14.23,14.23,0,0,0,87.68,118.69Z"></path></g><path d="M320.77,343.86a.49.49,0,0,1-.3-.1L296.61,325.2h-205A8.66,8.66,0,0,1,83,316.55V53.24a8.66,8.66,0,0,1,8.65-8.65H429.87a8.66,8.66,0,0,1,8.65,8.65V316.55a8.66,8.66,0,0,1-8.65,8.65H317.75l3.52,18.07a.53.53,0,0,1-.23.52A.5.5,0,0,1,320.77,343.86ZM91.62,45.59A7.66,7.66,0,0,0,84,53.24V316.55a7.66,7.66,0,0,0,7.65,7.65H296.78a.49.49,0,0,1,.31.11L320,342.15l-3.37-17.35a.53.53,0,0,1,.1-.42.53.53,0,0,1,.39-.18H429.87a7.66,7.66,0,0,0,7.65-7.65V53.24a7.66,7.66,0,0,0-7.65-7.65Z" style="fill:#263238"></path><path d="M357.76,103.05H284.05a34.21,34.21,0,0,0-53.7,0H156.64a9.06,9.06,0,0,0-9,9v155a9.06,9.06,0,0,0,9,9.05H357.76a9.06,9.06,0,0,0,9-9.05v-155A9.06,9.06,0,0,0,357.76,103.05Z" style="fill:#263238"></path><rect x="151.64" y="98.85" width="218.21" height="172.09" rx="8.55" style="fill:#fff"></rect><path d="M361.3,271.44H160.19a9.06,9.06,0,0,1-9.05-9.05v-155a9.06,9.06,0,0,1,9.05-9.05H361.3a9.06,9.06,0,0,1,9.05,9.05v155A9.06,9.06,0,0,1,361.3,271.44ZM160.19,99.35a8.06,8.06,0,0,0-8.05,8.05v155a8.06,8.06,0,0,0,8.05,8.05H361.3a8.06,8.06,0,0,0,8.05-8.05v-155a8.06,8.06,0,0,0-8.05-8.05Z" style="fill:#263238"></path><path d="M294.52,119.62a33.78,33.78,0,1,1-33.77-33.78A33.64,33.64,0,0,1,294.52,119.62Z" style="fill:#fff"></path><path d="M260.75,153.89a34.3,34.3,0,1,1,21.16-7.33A34.25,34.25,0,0,1,260.75,153.89Zm0-67.55a33.27,33.27,0,0,0-20.56,59.44,32.86,32.86,0,0,0,20.56,7.11,33.28,33.28,0,0,0,0-66.55Z" style="fill:#263238"></path><path d="M274.85,114.33a14.11,14.11,0,1,0-14.1,14.1A14.1,14.1,0,0,0,274.85,114.33Z" style="fill:#263238"></path><path d="M260.75,128.93a14.6,14.6,0,1,1,14.6-14.6A14.63,14.63,0,0,1,260.75,128.93Zm0-28.2a13.6,13.6,0,1,0,13.6,13.6A13.62,13.62,0,0,0,260.75,100.73Z" style="fill:#263238"></path><path d="M281.61,146.17a33.74,33.74,0,0,1-41.72,0,21.36,21.36,0,0,1,41.72,0Z" style="fill:#263238"></path><path d="M260.75,153.89a34.25,34.25,0,0,1-21.17-7.33.5.5,0,0,1-.18-.5,21.85,21.85,0,0,1,42.69,0,.5.5,0,0,1-.17.5A34.27,34.27,0,0,1,260.75,153.89ZM240.44,146a32.82,32.82,0,0,0,20.31,6.92,33.25,33.25,0,0,0,20.3-6.92,20.86,20.86,0,0,0-40.61,0Z" style="fill:#263238"></path><path d="M318.55,209.68H202.94a.5.5,0,0,1-.5-.5V191a.5.5,0,0,1,.5-.5H318.55a.5.5,0,0,1,.5.5v18.17A.5.5,0,0,1,318.55,209.68Zm-115.11-1H318.05V191.51H203.44Z" style="fill:#263238"></path><path d="M318.55,245.23H202.94a.5.5,0,0,1-.5-.5V226.55a.5.5,0,0,1,.5-.5H318.55a.5.5,0,0,1,.5.5v18.18A.5.5,0,0,1,318.55,245.23Zm-115.11-1H318.05V227.05H203.44Z" style="fill:#263238"></path><path d="M242.09,204.61a2.47,2.47,0,0,1-1.44-.37,1.88,1.88,0,0,1-.68-1.05,6.27,6.27,0,0,1-.18-1.59v-5.72h1.15v5.78a6.32,6.32,0,0,0,.07,1,1.31,1.31,0,0,0,.33.72,1.19,1.19,0,0,0,1.51,0,1.37,1.37,0,0,0,.32-.72,6.32,6.32,0,0,0,.07-1v-5.78h1.14v5.72a6.27,6.27,0,0,1-.18,1.59,1.88,1.88,0,0,1-.68,1.05A2.39,2.39,0,0,1,242.09,204.61Z" style="fill:#ccc"></path><path d="M247.69,204.61a2.26,2.26,0,0,1-1.24-.32,2,2,0,0,1-.76-.89,3.46,3.46,0,0,1-.29-1.31l1.06-.28a4.26,4.26,0,0,0,.15.88,1.56,1.56,0,0,0,.36.7,1.1,1.1,0,0,0,1.43,0,1.07,1.07,0,0,0,.24-.75,1.55,1.55,0,0,0-.27-1,6.16,6.16,0,0,0-.67-.72l-1.45-1.28a2.26,2.26,0,0,1-.63-.81,2.56,2.56,0,0,1-.2-1.09,1.93,1.93,0,0,1,.54-1.47,2,2,0,0,1,1.48-.53,2.74,2.74,0,0,1,.9.14,1.51,1.51,0,0,1,.65.41,1.79,1.79,0,0,1,.42.7,4.32,4.32,0,0,1,.21,1l-1,.28a4.52,4.52,0,0,0-.12-.79,1.26,1.26,0,0,0-.34-.57,1,1,0,0,0-1.64.73,1.39,1.39,0,0,0,.14.65,1.94,1.94,0,0,0,.43.52l1.46,1.28a4.75,4.75,0,0,1,.86,1,2.55,2.55,0,0,1,.38,1.4,2.11,2.11,0,0,1-.27,1.1,1.78,1.78,0,0,1-.73.71A2.2,2.2,0,0,1,247.69,204.61Z" style="fill:#ccc"></path><path d="M250.69,204.51v-8.63H254v.89H251.9v2.86h1.74v.85H251.9v3.17h2.16v.86Z" style="fill:#ccc"></path><path d="M255,204.51v-8.63h1.74a3.73,3.73,0,0,1,1.43.23,1.61,1.61,0,0,1,.83.73,2.71,2.71,0,0,1,.28,1.33,3.66,3.66,0,0,1-.11.91,1.79,1.79,0,0,1-.34.69,1.28,1.28,0,0,1-.62.41l1.23,4.33H258.3l-1.13-4h-.93v4Zm1.21-4.91h.45a2.21,2.21,0,0,0,.84-.13A.8.8,0,0,0,258,199a2,2,0,0,0,.15-.86,1.74,1.74,0,0,0-.27-1.09,1.38,1.38,0,0,0-1.1-.34h-.53Z" style="fill:#ccc"></path><path d="M260.56,204.51v-8.63h.83l2.45,5.73v-5.73h1v8.63h-.77l-2.48-5.89v5.89Z" style="fill:#ccc"></path><path d="M265.72,204.51l1.84-8.63h1.16l1.84,8.63h-1.14l-.39-2.17h-1.76l-.42,2.17Zm1.71-3h1.44l-.73-3.89Z" style="fill:#ccc"></path><path d="M271.42,204.51l.16-8.63h1.18l1.52,7,1.54-7H277l.16,8.63h-1l-.1-6.27-1.46,6.27h-.68l-1.45-6.27-.09,6.27Z" style="fill:#ccc"></path><path d="M278.47,204.51v-8.63h3.35v.89h-2.14v2.86h1.73v.85h-1.73v3.17h2.16v.86Z" style="fill:#ccc"></path><path d="M239,240.24V231.6h2.14a2.35,2.35,0,0,1,1.24.28,1.62,1.62,0,0,1,.68.82,3.48,3.48,0,0,1,.21,1.29,2.7,2.7,0,0,1-.24,1.18,1.71,1.71,0,0,1-.71.77,2.2,2.2,0,0,1-1.17.28h-1v4Zm1.2-4.89h.55a2.6,2.6,0,0,0,.83-.11.77.77,0,0,0,.42-.41,2.09,2.09,0,0,0,.13-.83,3.84,3.84,0,0,0-.09-.95.68.68,0,0,0-.38-.46,2.42,2.42,0,0,0-.89-.13h-.57Z" style="fill:#ccc"></path><path d="M243.27,240.24l1.83-8.64h1.16l1.85,8.64H247l-.4-2.18h-1.76l-.41,2.18Zm1.7-3h1.44l-.72-3.89Z" style="fill:#ccc"></path><path d="M251,240.33a2.26,2.26,0,0,1-1.24-.32,2,2,0,0,1-.75-.88,3.56,3.56,0,0,1-.3-1.32l1.06-.28a4.26,4.26,0,0,0,.15.88,1.51,1.51,0,0,0,.36.7,1.1,1.1,0,0,0,1.43,0,1.06,1.06,0,0,0,.24-.75,1.5,1.5,0,0,0-.27-.94,4.9,4.9,0,0,0-.67-.72l-1.45-1.28a2.54,2.54,0,0,1-.63-.82,2.69,2.69,0,0,1-.2-1.09,2,2,0,0,1,.54-1.47,2,2,0,0,1,1.48-.52,2.75,2.75,0,0,1,.9.13,1.51,1.51,0,0,1,.65.41,1.87,1.87,0,0,1,.42.7,4.32,4.32,0,0,1,.21,1l-1,.28a4.55,4.55,0,0,0-.12-.78,1.24,1.24,0,0,0-.34-.58,1,1,0,0,0-.69-.22.86.86,0,0,0-1,1,1.39,1.39,0,0,0,.14.65,1.8,1.8,0,0,0,.43.52l1.46,1.28a4.75,4.75,0,0,1,.86,1,2.57,2.57,0,0,1,.38,1.4,2.17,2.17,0,0,1-.27,1.11,1.85,1.85,0,0,1-.73.71A2.31,2.31,0,0,1,251,240.33Z" style="fill:#ccc"></path><path d="M256.06,240.33a2.26,2.26,0,0,1-1.24-.32,2,2,0,0,1-.75-.88,3.77,3.77,0,0,1-.3-1.32l1.06-.28a5.05,5.05,0,0,0,.15.88,1.52,1.52,0,0,0,.37.7,1.08,1.08,0,0,0,1.42,0,1.06,1.06,0,0,0,.24-.75,1.5,1.5,0,0,0-.27-.94,4.9,4.9,0,0,0-.67-.72l-1.45-1.28a2.54,2.54,0,0,1-.63-.82,2.69,2.69,0,0,1-.2-1.09,2,2,0,0,1,.54-1.47,2.07,2.07,0,0,1,1.49-.52,2.75,2.75,0,0,1,.9.13,1.57,1.57,0,0,1,.65.41,2,2,0,0,1,.41.7,3.84,3.84,0,0,1,.21,1l-1,.28a4.53,4.53,0,0,0-.13-.78,1.24,1.24,0,0,0-.34-.58,1,1,0,0,0-.68-.22,1,1,0,0,0-.7.24.93.93,0,0,0-.25.71,1.39,1.39,0,0,0,.13.65,1.8,1.8,0,0,0,.43.52l1.46,1.28a4.79,4.79,0,0,1,.87,1,2.66,2.66,0,0,1,.37,1.4,2.17,2.17,0,0,1-.27,1.11,1.85,1.85,0,0,1-.73.71A2.28,2.28,0,0,1,256.06,240.33Z" style="fill:#ccc"></path><path d="M260.19,240.24l-1.41-8.64h1l.93,6.2,1.16-6.17h.85l1.18,6.21.9-6.24h1l-1.38,8.64h-.88l-1.2-6.4-1.22,6.4Z" style="fill:#ccc"></path><path d="M269,240.33a2.52,2.52,0,0,1-1.4-.34,1.85,1.85,0,0,1-.74-1,4.38,4.38,0,0,1-.23-1.48v-3.28a4.26,4.26,0,0,1,.23-1.46,1.81,1.81,0,0,1,.75-.94,2.56,2.56,0,0,1,1.39-.32,2.52,2.52,0,0,1,1.38.33,1.87,1.87,0,0,1,.75.93,4.27,4.27,0,0,1,.22,1.46v3.29a4.37,4.37,0,0,1-.22,1.47,1.93,1.93,0,0,1-.75,1A2.35,2.35,0,0,1,269,240.33Zm0-1a1.07,1.07,0,0,0,.72-.2.89.89,0,0,0,.33-.55,3.49,3.49,0,0,0,.09-.84V234a3.34,3.34,0,0,0-.09-.83.84.84,0,0,0-.33-.53,1.19,1.19,0,0,0-.72-.19,1.25,1.25,0,0,0-.73.19.9.9,0,0,0-.34.53,4,4,0,0,0-.08.83v3.78a4.13,4.13,0,0,0,.08.84,1,1,0,0,0,.34.55A1.11,1.11,0,0,0,269,239.38Z" style="fill:#ccc"></path><path d="M272.5,240.24V231.6h1.74a3.83,3.83,0,0,1,1.42.23,1.57,1.57,0,0,1,.84.74,2.79,2.79,0,0,1,.27,1.32,3.62,3.62,0,0,1-.1.91,1.83,1.83,0,0,1-.34.7,1.41,1.41,0,0,1-.62.41l1.22,4.33h-1.16l-1.13-4.06h-.94v4.06Zm1.2-4.92h.46a2.16,2.16,0,0,0,.83-.13.83.83,0,0,0,.47-.43,2.06,2.06,0,0,0,.15-.87,1.68,1.68,0,0,0-.28-1.09,1.39,1.39,0,0,0-1.09-.34h-.54Z" style="fill:#ccc"></path><path d="M278,240.24V231.6h1.88a3.4,3.4,0,0,1,1.52.29,1.76,1.76,0,0,1,.8.88,3.89,3.89,0,0,1,.23,1.46v3.18a4.4,4.4,0,0,1-.23,1.55,1.89,1.89,0,0,1-.78.95,2.76,2.76,0,0,1-1.45.33Zm1.2-.87h.69a1.39,1.39,0,0,0,.94-.25,1.19,1.19,0,0,0,.33-.75,9.94,9.94,0,0,0,.06-1.18v-2.81a5.24,5.24,0,0,0-.09-1.08.89.89,0,0,0-.37-.61,1.63,1.63,0,0,0-.9-.19h-.66Z" style="fill:#ccc"></path><path d="M242.49,177.41v-14h1.95V176H248v1.39Z" style="fill:#263238"></path><path d="M252.82,177.57a4,4,0,0,1-2.26-.55,3,3,0,0,1-1.21-1.58A7.31,7.31,0,0,1,249,173v-5.3a6.75,6.75,0,0,1,.38-2.38,3,3,0,0,1,1.2-1.52,4.23,4.23,0,0,1,2.26-.52,4.06,4.06,0,0,1,2.24.53,2.94,2.94,0,0,1,1.2,1.52,6.7,6.7,0,0,1,.37,2.37V173a6.94,6.94,0,0,1-.37,2.39,3.09,3.09,0,0,1-1.2,1.58A4,4,0,0,1,252.82,177.57Zm0-1.54a1.78,1.78,0,0,0,1.17-.32,1.53,1.53,0,0,0,.54-.9,5.9,5.9,0,0,0,.14-1.35v-6.13a5.8,5.8,0,0,0-.14-1.34,1.46,1.46,0,0,0-.54-.86,1.9,1.9,0,0,0-1.17-.3,2,2,0,0,0-1.18.3,1.43,1.43,0,0,0-.55.86,5.8,5.8,0,0,0-.14,1.34v6.13a5.9,5.9,0,0,0,.14,1.35,1.49,1.49,0,0,0,.55.9A1.82,1.82,0,0,0,252.82,176Z" style="fill:#263238"></path><path d="M261.89,177.59a3.56,3.56,0,0,1-2.1-.56,3.1,3.1,0,0,1-1.14-1.64,8.09,8.09,0,0,1-.36-2.57v-4.68a9.48,9.48,0,0,1,.32-2.62,3,3,0,0,1,1.14-1.64,4,4,0,0,1,2.29-.57,4.34,4.34,0,0,1,2.12.44,2.56,2.56,0,0,1,1.16,1.34,6.29,6.29,0,0,1,.36,2.29v.52h-1.83v-.43a7.69,7.69,0,0,0-.12-1.5,1.39,1.39,0,0,0-.49-.86,1.91,1.91,0,0,0-1.16-.28,1.73,1.73,0,0,0-1.26.39,1.86,1.86,0,0,0-.48,1.08,11.87,11.87,0,0,0-.1,1.55V173a7.81,7.81,0,0,0,.15,1.67,1.69,1.69,0,0,0,.56,1,1.86,1.86,0,0,0,1.18.33,1.72,1.72,0,0,0,1.17-.36,1.88,1.88,0,0,0,.57-1.07,7.94,7.94,0,0,0,.16-1.76v-1h-1.78v-1.38h3.54v6.92h-1.23l-.19-1.6a2.94,2.94,0,0,1-.86,1.28A2.43,2.43,0,0,1,261.89,177.59Z" style="fill:#263238"></path><path d="M267.89,177.41v-14h1.92v14Z" style="fill:#263238"></path><path d="M272.07,177.41v-14h1.33l4,9.29v-9.29H279v14h-1.25l-4-9.55v9.55Z" style="fill:#263238"></path></g></svg>